<svg xmlns="http://www.w3.org/2000/svg" width="18" height="18" viewBox="0 0 18 18"><path fill-rule="evenodd" clip-rule="evenodd" fill="#9DBBEE" d="M9 2.001c-3.865 0-6.999 3.134-6.999 6.999 0 3.865 3.134 6.999 6.999 6.999 3.866 0 6.999-3.133 6.999-6.999 0-3.865-3.133-6.999-6.999-6.999zm0 1.75c2.806 0 5.078 2.207 5.222 4.977-1.282-1.44-3.143-2.353-5.222-2.353-2.079 0-3.94.913-5.222 2.353.144-2.77 2.416-4.977 5.222-4.977zm0 6.124c-.483 0-.875-.392-.875-.875s.392-.875.875-.875.875.392.875.875-.392.875-.875.875zm-4.874 1.048c.369-.322.846-.523 1.374-.523 1.16 0 2.1.94 2.1 2.1 0 .528-.201 1.006-.523 1.375-1.349-.534-2.418-1.603-2.951-2.952zm6.797 2.951c-.322-.369-.523-.846-.523-1.374 0-1.16.94-2.1 2.1-2.1.528 0 1.006.201 1.374.523-.533 1.349-1.602 2.418-2.951 2.951z"/></svg>