<svg version="1" xmlns="http://www.w3.org/2000/svg" width="17" height="17"><path fill="#8C8C8C" d="M8.458.073c-4.631 0-8.385 3.754-8.385 8.385s3.754 8.384 8.385 8.384 8.384-3.753 8.384-8.384-3.753-8.385-8.384-8.385zm0 15.481c-3.919 0-7.096-3.178-7.096-7.096 0-3.919 3.177-7.096 7.096-7.096 3.918 0 7.096 3.177 7.096 7.096 0 3.918-3.178 7.096-7.096 7.096zm-1.11-2.624h2.028v-1.99h-2.028v1.99zm3.579-8.566c-.25-.25-.579-.458-.988-.626-.409-.169-.919-.252-1.531-.252-.474 0-.903.08-1.286.239-.383.16-.71.381-.982.665-.27.285-.481.621-.633 1.007-.15.388-.23.814-.239 1.279h1.899c0-.233.025-.451.078-.652.051-.203.131-.38.239-.53s.245-.271.413-.362c.168-.091.368-.136.601-.136.345 0 .614.095.808.284.194.19.292.483.292.88.007.231-.034.426-.124.582-.09.154-.209.296-.355.425-.147.13-.306.259-.479.388-.172.129-.336.282-.49.459-.155.177-.291.389-.408.639-.117.25-.187.561-.212.93v.581h1.744v-.49c.034-.259.118-.474.251-.646.134-.173.286-.325.459-.459.172-.133.355-.267.549-.399.193-.134.37-.295.529-.485.16-.189.293-.417.401-.684.106-.267.16-.608.16-1.021 0-.25-.054-.519-.16-.808-.108-.289-.286-.557-.536-.808z"/></svg>