<svg xmlns="http://www.w3.org/2000/svg" width="18" height="18" viewBox="0 0 18 18"><path fill-rule="evenodd" clip-rule="evenodd" fill="#9DBBEE" d="M9.37 13.797v-1.775h4.629c0-2.618-2.592-2.715-2.592-2.715v-1.55c0-1.939-1.852-1.939-1.852-1.939h-2.962v-3.103c0-2.739-2.592-2.715-2.592-2.715v9.696c0 2.327 2.222 2.327 2.222 2.327h1.667v1.775c-1.364.193-2.778.911-2.778 2.267h.018l-.019.097c0 .589.456 1.067 1.018 1.067s1.018-.478 1.018-1.067c0-.362-.183-.666-.447-.859.514-.316 1.336-.401 1.928-.401s1.414.086 1.928.401c-.263.193-.447.497-.447.859 0 .589.456 1.067 1.018 1.067s1.018-.478 1.018-1.067l-.019-.097h.019c.003-1.356-1.411-2.075-2.775-2.268zm-2.407-4.489c-.347 0-.37-.388-.37-.388v-1.745h2.94c.579 0 .579.582.579.582v1.551h-3.149z"/></svg>