<svg xmlns="http://www.w3.org/2000/svg" width="18" height="18" viewBox="0 0 18 18"><path fill="#9DBBEE" d="M14.882 5.099c.023-.246.129-1.23-.5-1.928-.333-.37-.886-.681-1.677-.702-.157-.118-.316-.235-.485-.341-.677-.426-1.398-.715-2.133-.899l-.074-.023.039.016c-.571-.14-1.15-.222-1.727-.222-1.601 0-3.169.54-4.454 1.534-.382.051-2.252.274-2.119 2.556-1.637 3.319-.534 7.405 2.665 9.421.721.454 1.492.75 2.278.929.479.353 1.051.562 1.708.562.649 0 1.238-.312 1.595-.567 1.802-.425 3.446-1.525 4.511-3.215 1.404-2.228 1.451-4.918.373-7.121zm-6.556-3.349c1.142 0 2.256.312 3.249.88-.633.171-1.355.482-2.199 1.035-1.556 1.019-2.828 2.357-2.828 2.357s-1.906-1.33-2.478-2.7c1.171-.999 2.662-1.572 4.256-1.572zm-6.489 7.594c-.163-1.028-.06-2.056.252-3.03.788 1.591 2.602 2.844 2.724 2.957.042 1.576.191 2.836.494 3.918-.267-.121-.53-.254-.785-.414-1.318-.83-2.232-2.059-2.685-3.431zm11.58 1.41c-1.023 1.625-2.653 2.63-4.409 2.92-.26-.835-.447-2.171-.512-4.381 1.556-1.99 3.995-3.74 5.536-4.11.627 1.792.476 3.839-.615 5.571z"/></svg>