<svg xmlns="http://www.w3.org/2000/svg" width="18" height="18" viewBox="0 0 18 18"><path clip-rule="evenodd" d="M2.501 3.959s-.089-.682-.714-.682h-1.071s-.715 0-.715-.681l.714-.682h1.071c1.973 0 2.148 1.489 2.148 1.489l.084.556h10.981v3.75c0 1.363-1.786 1.704-1.786 1.704l-7.923 1.704.115.722s.08.641.666.641h7.142s.714-.011.714.682c0 .692-.714.682-.714.682h-7.499c-1.607 0-1.786-1.704-1.786-1.704l-1.427-8.181z" fill="#9dbbee" fill-rule="evenodd"/><ellipse fill-rule="evenodd" clip-rule="evenodd" fill="#9DBBEE" cx="6.892" cy="15.719" rx="1.25" ry="1.193"/><ellipse fill-rule="evenodd" clip-rule="evenodd" fill="#9DBBEE" cx="12.963" cy="15.719" rx="1.25" ry="1.193"/></svg>