<svg xmlns="http://www.w3.org/2000/svg" width="33" height="33" viewBox="0 0 33 33"><path fill="#FEF406" d="M25.342 18.832c.436-1.139.679-2.375.679-3.67 0-5.609-4.489-10.162-10.021-10.162s-10.021 4.553-10.021 10.162c0 1.295.243 2.53.679 3.67h18.684z"/><path fill="#00923F" d="M12.824 8.105l-4.658 9.456h3.176l1.764-3.528 2.894 3.528 2.893-3.528 1.764 3.528h3.176l-4.658-9.456-3.175 4.375-3.176-4.375z"/><path fill="#00923F" d="M5.697 25.959l2.117-5.928h7.763l-4.799 5.928h-5.081z"/><path fill="#00923F" d="M26.303 25.959l-2.117-5.928h-7.763l4.799 5.928h5.081z"/><path fill="#00923F" d="M16 29.911l-3.317-3.458 3.317-5.716 3.317 5.716-3.317 3.458z"/></svg>