<svg xmlns="http://www.w3.org/2000/svg" width="33" height="33" viewBox="0 0 33 33"><path d="M25.894 17.553l-3-6c-.169-.339-.515-.553-.894-.553v-1.5c0-.827-.673-1.5-1.5-1.5h-1c-.827 0-1.5.673-1.5 1.5v1.5h-3v-1.5c0-.827-.673-1.5-1.5-1.5h-1c-.827 0-1.5.673-1.5 1.5v1.5c-.379 0-.725.214-.894.553l-3 6c-.07.139-.106.292-.106.447v7c0 .552.448 1 1 1h5c.552 0 1-.448 1-1v-6h5v6c0 .552.448 1 1 1h5c.552 0 1-.448 1-1v-7c0-.155-.036-.308-.106-.447zm-6.894-8.053c0-.276.225-.5.5-.5h1c.275 0 .5.224.5.5v1.5h-2v-1.5zm-7 0c0-.276.225-.5.5-.5h1c.275 0 .5.224.5.5v1.5h-2v-1.5zm1 8.5v7h-5v-7l3-6h5v6h-3zm12 7h-5v-7h-3v-6h5l3 6v7z"/></svg>