<svg xmlns="http://www.w3.org/2000/svg" width="33" height="33" viewBox="0 0 33 33"><path d="M13 18h6c3 0 4-2 4-4s-1-4-4-4h-6.051c-.232-1.14-1.242-2-2.449-2-1.378 0-2.5 1.122-2.5 2.5s1.122 2.5 2.5 2.5c1.207 0 2.217-.86 2.449-2h6.051c2.48 0 3 1.631 3 3s-.52 3-3 3h-6c-2.542 0-4 1.458-4 4s1.458 4 4 4h5.293l-2.146 2.146c-.195.195-.195.512 0 .707.097.098.225.147.353.147s.256-.049.354-.146l3-3c.195-.195.195-.512 0-.707l-3-3c-.195-.195-.512-.195-.707 0-.195.195-.195.512 0 .707l2.146 2.146h-5.293c-2 0-3-1-3-3s1-3 3-3zm-2.5-6c-.828 0-1.5-.672-1.5-1.5s.672-1.5 1.5-1.5 1.5.672 1.5 1.5-.672 1.5-1.5 1.5zm13 11c.828 0 1.5.672 1.5 1.5s-.672 1.5-1.5 1.5-1.5-.672-1.5-1.5.672-1.5 1.5-1.5m0-1c-1.378 0-2.5 1.122-2.5 2.5s1.122 2.5 2.5 2.5 2.5-1.122 2.5-2.5-1.122-2.5-2.5-2.5z"/></svg>