<svg xmlns="http://www.w3.org/2000/svg" width="18" height="18" viewBox="0 0 18 18"><path fill="#9DBBEE" d="M13.881 9.628l2.142-.719.029-.046-.244-1.708-.041-.035-2.255-.091c-.253-.01-.468-.129-.587-.327-.12-.198-.125-.444-.015-.674l.996-2.053-.016-.058-1.381-1.035-.059.003-1.69 1.528c-.116.105-.252.171-.393.191-.328.047-.624-.149-.737-.487l-.719-2.142-.046-.026-1.71.244-.035.041-.091 2.256c-.015.356-.245.627-.572.673-.142.02-.291-.005-.431-.073l-2.049-.994-.059.015-1.036 1.381.004.059 1.527 1.689c.171.189.235.426.177.649-.058.224-.231.399-.472.481l-2.142.718-.027.047.244 1.708.042.035 2.255.091c.256.011.47.131.588.331.118.199.123.444.012.673l-.995 2.05.015.059 1.381 1.036.061-.004 1.687-1.527c.116-.105.252-.171.394-.191.328-.047.624.149.737.487l.719 2.141.047.027 1.708-.244.036-.042.09-2.255c.015-.357.245-.626.571-.673.142-.02.292.005.433.075l2.049.993.057-.015 1.037-1.382-.004-.059-1.529-1.69c-.171-.19-.235-.427-.176-.651.059-.224.231-.399.472-.48zm-4.457 2.341c-1.64.234-3.16-.905-3.394-2.546-.234-1.64.905-3.16 2.546-3.394 1.64-.234 3.16.905 3.394 2.546.234 1.64-.905 3.16-2.546 3.394z"/></svg>