<svg xmlns="http://www.w3.org/2000/svg" width="33" height="33" viewBox="0 0 33 33"><circle fill-rule="evenodd" clip-rule="evenodd" cx="13" cy="21" r="1"/><circle fill-rule="evenodd" clip-rule="evenodd" cx="20" cy="21" r="1"/><path d="M14.495 10l4.009.008c.274 0 .496.223.496.496s-.223.496-.494.496l-4.01-.008c-.274 0-.496-.223-.496-.496s.222-.495.495-.496m.001-1c-.826 0-1.496.67-1.496 1.496s.67 1.496 1.496 1.496l4.008.008c.826 0 1.496-.67 1.496-1.496s-.67-1.496-1.496-1.496l-4.008-.008z"/><path stroke="#000" stroke-width="1.25" stroke-miterlimit="10" d="M20 23" fill="none"/><path d="M24 21v-11c0-2-1-3-3-3h-9c-2 0-3 1-3 3v11c0 1.979.983 2.975 2.941 2.996l-2.941 3.004h1.952l2.938-3h5.219l2.938 3h1.953l-2.941-3.004c1.958-.021 2.941-1.017 2.941-2.996zm-1 0c0 1.439-.561 2-2 2h-9c-1.439 0-2-.561-2-2v-2h13v2zm0-3h-13v-3.958h13v3.958zm0-4.958h-13v-3.042c0-1.439.561-2 2-2h9c1.439 0 2 .561 2 2v3.042z"/></svg>