<svg xmlns="http://www.w3.org/2000/svg" viewBox="0 0 48 48"><path fill-rule="evenodd" clip-rule="evenodd" fill="#006ED4" d="M40.883 41.998l-.219-.012.007.014h-30.128l.009-.008c-2.891-.035-5.225-2.385-5.225-5.285 0-2.922 2.369-5.291 5.292-5.291l.191.02c.771-3.102 3.567-5.403 6.908-5.403.217 0 .43.014.642.032 1.446-4.182 5.407-7.189 10.081-7.189 5.376 0 9.812 3.978 10.554 9.148.602-.166 1.232-.26 1.888-.26 3.931 0 7.117 3.186 7.117 7.117 0 3.93-3.187 7.117-7.117 7.117zm.03-11.299c-2.071 0-3.772 1.525-4.076 3.51l-1.715-.791c.66-1.139 1.043-2.457 1.043-3.867 0-4.27-3.461-7.731-7.731-7.731s-7.732 3.461-7.732 7.731c0 .236.015.469.035.699-.764-.793-1.83-1.291-3.019-1.291-2.317 0-4.196 1.879-4.196 4.195 0 .854.259 1.645.695 2.307l-1.375.688c-.235-1.021-1.146-1.785-2.239-1.785-1.271 0-2.303 1.029-2.303 2.301 0 1.273 1.031 2.303 2.303 2.303.134 0 .263-.018.391-.039h29.435c.161.02.318.049.485.049 2.285 0 4.139-1.854 4.139-4.139-.001-2.288-1.855-4.14-4.14-4.14z"/><path fill-rule="evenodd" clip-rule="evenodd" fill="#FF6C00" d="M26.325 16.648c-.338-.392-.696-.769-1.092-1.116l4.734-4.734 1.104 1.104-4.746 4.746zm-5.296 1.744c-3.192-1.843-7.273-.749-9.116 2.443-1.112 1.926-1.139 4.169-.296 6.055-.653.586-1.216 1.268-1.667 2.027-1.684-2.748-1.849-6.306-.124-9.292 2.508-4.343 8.061-5.832 12.404-3.324.859.497 1.603 1.116 2.229 1.817-.833.261-1.622.615-2.367 1.04-.323-.284-.676-.543-1.063-.766zm-1.287-5.522l1.651-6.161 1.508.404-1.644 6.135c-.499-.166-1.006-.284-1.515-.378zm-7.477-6.007l1.508-.404 1.721 6.422c-.512.098-1.015.233-1.509.399l-1.72-6.417zm-7.92 5.039l1.104-1.104 4.685 4.685c-.391.339-.765.7-1.111 1.096l-4.678-4.677zm2.052 10.037l-6.397-1.715.404-1.508 6.391 1.713c-.17.498-.298 1.002-.398 1.51zm.419 5.949l-6.412 1.719-.404-1.508 6.409-1.719c.102.512.237 1.016.407 1.508z"/></svg>