<?xml version="1.0" encoding="utf-8"?>
<!-- Generator: Adobe Illustrator 16.0.0, SVG Export Plug-In . SVG Version: 6.00 Build 0)  -->
<!DOCTYPE svg PUBLIC "-//W3C//DTD SVG 1.1//EN" "http://www.w3.org/Graphics/SVG/1.1/DTD/svg11.dtd">
<svg version="1.1" id="Layer_1" xmlns="http://www.w3.org/2000/svg" xmlns:xlink="http://www.w3.org/1999/xlink" x="0px" y="0px"
	 width="178px" height="120px" viewBox="0 0 178 120" enable-background="new 0 0 178 120" xml:space="preserve">
<g>
	<path fill="#FF0000" d="M37.127,5h-8.021c-7.877,0-14.56,5.998-14.56,17.641c0,6.984,3.237,12.135,9.002,14.676L12.79,56.792
		c-0.352,0.636,0,1.129,0.561,1.129h4.993c0.422,0,0.705-0.141,0.845-0.493l9.776-19.123h3.52v19.123c0,0.211,0.21,0.493,0.49,0.493
		h4.363c0.422,0,0.562-0.212,0.562-0.563V5.708C37.9,5.212,37.619,5,37.127,5z M32.485,33.79h-2.956
		c-4.644,0-9.145-3.387-9.145-11.854c0-8.821,4.22-12.419,8.511-12.419h3.589V33.79z"/>
	<path d="M63.565,23.21h-4.36c-0.352,0-0.563,0.282-0.563,0.492v12.811h-8.091V23.703c0-0.351-0.139-0.492-0.49-0.492h-4.363
		c-0.351,0-0.562,0.212-0.562,0.492v33.626c0,0.354,0.141,0.563,0.491,0.563h4.434c0.281,0,0.49-0.21,0.49-0.563V40.962h8.091
		v16.367c0,0.354,0.211,0.563,0.563,0.563h4.36c0.352,0,0.493-0.282,0.493-0.563V23.703C64.059,23.422,63.847,23.21,63.565,23.21z"
		/>
	<path d="M163.141,55.637l-0.564-2.399c-0.066-0.212-0.137-0.282-0.348-0.282c-0.352,0-2.252,0.773-4.994,0.773
		c-5.348,0-7.949-5.148-7.949-13.333c0-7.199,2.182-13.657,5.836-13.657c0.988,0,2.184,0.281,4.082,2.047
		c0.211,0.211,0.35,0.282,0.561,0.282c0.213,0,0.424-0.144,0.635-0.496l1.9-3.103c0.141-0.212,0.211-0.427,0.211-0.637
		c0-0.282-0.281-0.493-0.703-0.704c-2.887-1.482-4.855-1.764-6.543-1.764c-6.613,0-11.748,7.236-11.748,19.583
		c0,10.655,4.924,16.794,11.961,16.794c2.955,0,6.119-1.411,7.385-2.33C163.141,56.2,163.213,55.918,163.141,55.637z"/>
	<path d="M132.57,38.489l8.439-14.787c0.143-0.21,0.07-0.492-0.211-0.492h-4.15c-1.195,0-1.619,0.423-2.037,1.339l-6.334,12.53
		c-0.35,0.775-0.701,1.269-1.053,1.481V23.703c0-0.28-0.141-0.492-0.424-0.492h-4.57c-0.211,0-0.422,0.212-0.422,0.492v33.698
		c0,0.21,0.139,0.492,0.422,0.492h4.57c0.283,0,0.424-0.21,0.424-0.492V39.689c0.209,0.141,0.352,0.351,0.492,0.635l8.018,16.51
		c0.422,0.848,1.057,1.058,1.971,1.058h4.502c0.281,0,0.352-0.282,0.211-0.492L132.57,38.489z"/>
	<path d="M92.266,53.448H91.42c-1.055,0-1.336-0.422-1.336-1.27V23.703c0-0.351-0.141-0.492-0.421-0.492H75.594
		c-0.352,0-0.562,0.212-0.562,0.492v2.541c0,8.537-0.493,18.879-4.995,27.205h-1.548c-0.422,0-0.562,0.212-0.562,0.565
		c0,0,0,8.468,0,10.304c0,0.354,0.282,0.492,0.492,0.492h3.378c0.772,0,1.054-0.564,1.054-1.059v-5.858h15.055v6.425
		c0,0.281,0.208,0.492,0.49,0.492h3.589c0.42,0,0.842-0.35,0.842-1.059v-9.738C92.826,53.66,92.617,53.448,92.266,53.448z
		 M84.668,53.448H74.469c3.589-6.139,4.994-13.052,5.487-21.519c0.139-1.834,0.21-3.075,0.21-4.273h4.502V53.448z"/>
	<path d="M106.615,22.363c-7.596,0-10.973,8.929-10.973,19.372c0,10.655,4.781,17.004,11.816,17.004c3.445,0,6.473-1.339,8.018-2.33
		c0.281-0.141,0.352-0.351,0.281-0.633l-0.562-2.399c-0.07-0.281-0.211-0.422-0.561-0.422c-0.281,0-2.322,0.773-5.207,0.773
		c-5.416,0-7.949-4.726-7.949-10.935c0-0.849,0-1.67,0-1.67s2.742,0.329,4.361,0.329h10.27v-2.964
		C116.109,27.554,112.24,22.363,106.615,22.363z M105.84,37.008c-1.619,0-4.146,0.282-4.146,0.282s0-1.058,0.141-2.188
		c0.631-5.999,2.107-8.363,4.57-8.363c2.25,0,3.658,2.436,4.008,7.871c0.072,1.128,0.072,2.399,0.072,2.399H105.84z"/>
</g>
<g>
	<path d="M30.048,89.979h-2.016V75.095h2.016v6.402h6.698v-6.402h2.016v14.885h-2.016V83.24h-6.698V89.979z"/>
	<path d="M41.809,81.098c1.26-0.902,2.583-1.154,3.842-1.154c1.533,0,2.415,0.42,2.918,0.945c0.756,0.797,0.777,1.932,0.777,2.708
		v3.401c0,0.482-0.042,1.154,0.21,1.449c0.147,0.188,0.462,0.272,0.798,0.209l-0.252,1.491c-0.672,0.168-1.323,0-1.701-0.294
		c-0.294-0.23-0.546-0.65-0.651-1.07c-0.315,0.336-0.798,0.756-1.26,0.986c-0.483,0.252-1.155,0.441-2.079,0.441
		c-0.777,0-1.68-0.127-2.415-0.84c-0.441-0.42-0.882-1.135-0.882-2.163c0-0.987,0.441-1.659,0.861-2.079
		c0.819-0.818,2.058-1.07,2.771-1.176c0.882-0.125,1.995-0.188,2.813-0.188V83.66c0-0.588-0.021-1.344-0.483-1.764
		c-0.378-0.357-1.029-0.441-1.512-0.441c-0.609,0-1.113,0.126-1.575,0.273c-0.441,0.146-0.861,0.314-1.323,0.588L41.809,81.098z
		 M47.604,85.213c-0.168,0-1.722,0.063-2.541,0.231c-0.546,0.104-1.197,0.336-1.554,0.672c-0.231,0.21-0.483,0.588-0.483,1.112
		c0,0.547,0.252,0.861,0.42,1.029c0.378,0.357,0.882,0.42,1.281,0.42c0.378,0,0.798-0.062,1.239-0.252
		c0.567-0.252,1.218-0.798,1.638-1.281V85.213z"/>
	<path d="M59.775,81.161v-0.987h1.742v9.806h-1.742v-6.677l-4.661,5.669v1.008h-1.743v-9.806h1.743v6.656L59.775,81.161z
		 M60.447,75.555c-0.084,1.365-0.63,2.016-1.05,2.331c-0.609,0.483-1.26,0.567-1.953,0.567c-0.63,0-1.365-0.084-1.932-0.567
		c-0.714-0.588-0.966-1.638-1.029-2.331l1.323-0.293c0.042,0.398,0.168,1.176,0.609,1.553c0.168,0.147,0.483,0.336,1.05,0.336
		s0.882-0.188,1.05-0.336c0.315-0.272,0.525-0.756,0.609-1.553L60.447,75.555z"/>
	<path d="M65.299,92.562h-1.596v-4.074H64.9c0.545-0.944,1.008-2.1,1.196-3.17c0.147-0.861,0.168-1.89,0.168-3.443v-1.701h6.571
		v8.314h1.428v4.074h-1.596v-2.583h-7.369V92.562z M71.094,81.686h-3.149v1.029c0,1.554-0.231,2.75-0.294,3.023
		c-0.21,0.986-0.525,1.848-1.029,2.75h4.473V81.686z"/>
	<path d="M84.85,88.656c-0.777,0.903-1.891,1.555-3.822,1.555c-1.176,0-2.414-0.168-3.506-1.303
		c-0.861-0.902-1.406-2.268-1.406-3.758c0-1.344,0.461-2.877,1.406-3.905c0.777-0.84,1.806-1.302,3.17-1.302
		c1.071,0,2.079,0.273,2.898,1.05c1.217,1.155,1.532,3.087,1.512,4.431h-7.055c0.021,0.924,0.377,1.932,0.965,2.54
		c0.609,0.608,1.323,0.735,1.932,0.735c0.588,0,1.68-0.084,2.73-1.071L84.85,88.656z M78.445,75.43c0.65,0,1.197,0.545,1.197,1.196
		s-0.547,1.196-1.197,1.196s-1.197-0.545-1.197-1.196S77.795,75.43,78.445,75.43z M83.086,83.912
		c-0.063-0.631-0.357-1.387-0.777-1.827c-0.504-0.524-1.092-0.63-1.638-0.63c-0.608,0-1.134,0.126-1.616,0.588
		c-0.441,0.42-0.819,1.134-0.924,1.869H83.086z M82.687,75.43c0.651,0,1.196,0.545,1.196,1.196s-0.545,1.196-1.196,1.196
		s-1.196-0.545-1.196-1.196S82.035,75.43,82.687,75.43z"/>
	<path d="M89.112,81.686h-2.939v-1.512h7.622v1.512h-2.939v8.294h-1.743V81.686z"/>
	<path d="M103.811,88.636c-1.196,1.448-2.75,1.575-3.674,1.575c-1.218,0-2.541-0.147-3.633-1.26
		c-0.692-0.693-1.364-1.869-1.364-3.759c0-1.112,0.21-2.583,1.386-3.821c1.008-1.07,2.205-1.428,3.59-1.428
		c1.135,0,2.415,0.23,3.549,1.218l-1.008,1.218c-1.092-0.756-1.953-0.924-2.541-0.924c-0.986,0-1.637,0.398-2.016,0.777
		c-0.734,0.734-1.028,1.91-1.028,2.98c0,1.365,0.483,2.227,0.966,2.709c0.525,0.525,1.197,0.777,2.037,0.777
		c0.524,0,1.532-0.127,2.561-1.092L103.811,88.636z"/>
	<path d="M111.015,86.18c-0.672,0-1.176,0.23-1.47,0.504c-0.23,0.209-0.398,0.545-0.734,1.217l-0.42,0.84
		c-0.211,0.399-0.609,0.945-1.051,1.197c-0.566,0.314-1.406,0.252-1.658,0.23l-0.168-1.574h0.042c0.252,0,0.63-0.062,0.84-0.189
		c0.252-0.168,0.44-0.461,0.588-0.776l0.315-0.63c0.146-0.294,0.272-0.566,0.504-0.798c0.209-0.231,0.545-0.462,1.049-0.567v-0.084
		c-0.776,0-1.448-0.293-1.848-0.692c-0.524-0.524-0.65-1.196-0.65-1.7c0-0.967,0.336-1.701,0.798-2.143
		c0.378-0.356,1.155-0.84,2.792-0.84h4.031v9.806h-1.742v-3.8H111.015z M109.986,81.686c-0.357,0-0.945,0.043-1.344,0.42
		c-0.168,0.168-0.441,0.504-0.441,1.113c0,0.588,0.273,0.924,0.525,1.113c0.461,0.356,1.196,0.377,1.512,0.377h1.994v-3.023H109.986
		z"/>
	<path d="M121.163,80.174h3.947c1.092,0,2.016,0.189,2.646,0.799c0.42,0.398,0.65,0.944,0.65,1.658c0,0.756-0.272,1.26-0.566,1.574
		c-0.42,0.441-0.882,0.547-1.134,0.588v0.084c0.672,0.063,1.26,0.379,1.638,0.777c0.441,0.462,0.588,0.986,0.588,1.574
		c0,0.84-0.294,1.491-0.714,1.911c-0.692,0.692-1.868,0.84-2.897,0.84h-4.157V80.174z M124.922,84.205
		c0.314,0,0.902-0.021,1.28-0.336c0.336-0.272,0.399-0.672,0.399-0.944c0-0.483-0.189-0.756-0.379-0.924
		c-0.336-0.272-0.902-0.315-1.217-0.315h-2.059v2.52H124.922z M125.026,88.468c1.008,0,1.407-0.231,1.596-0.399
		c0.231-0.209,0.42-0.566,0.42-1.008c0-0.377-0.104-0.713-0.399-0.965c-0.293-0.252-0.776-0.42-1.742-0.42h-1.953v2.792H125.026z"/>
	<path d="M139.242,88.636c-1.197,1.448-2.751,1.575-3.675,1.575c-1.218,0-2.54-0.147-3.632-1.26
		c-0.693-0.693-1.365-1.869-1.365-3.759c0-1.112,0.21-2.583,1.386-3.821c1.008-1.07,2.204-1.428,3.591-1.428
		c1.133,0,2.414,0.23,3.548,1.218l-1.008,1.218c-1.092-0.756-1.952-0.924-2.54-0.924c-0.987,0-1.639,0.398-2.016,0.777
		c-0.735,0.734-1.029,1.91-1.029,2.98c0,1.365,0.482,2.227,0.966,2.709c0.524,0.525,1.196,0.777,2.036,0.777
		c0.525,0,1.533-0.127,2.562-1.092L139.242,88.636z"/>
	<path d="M149.301,88.656c-0.776,0.903-1.889,1.555-3.82,1.555c-1.176,0-2.415-0.168-3.507-1.303
		c-0.86-0.902-1.407-2.268-1.407-3.758c0-1.344,0.463-2.877,1.407-3.905c0.776-0.84,1.806-1.302,3.171-1.302
		c1.07,0,2.078,0.273,2.896,1.05c1.219,1.155,1.533,3.087,1.512,4.431h-7.055c0.021,0.924,0.379,1.932,0.967,2.54
		c0.608,0.608,1.322,0.735,1.932,0.735c0.588,0,1.68-0.084,2.729-1.071L149.301,88.656z M142.897,75.43
		c0.651,0,1.196,0.545,1.196,1.196s-0.545,1.196-1.196,1.196s-1.196-0.545-1.196-1.196S142.246,75.43,142.897,75.43z
		 M147.537,83.912c-0.062-0.631-0.356-1.387-0.776-1.827c-0.504-0.524-1.092-0.63-1.638-0.63c-0.609,0-1.134,0.126-1.617,0.588
		c-0.44,0.42-0.818,1.134-0.924,1.869H147.537z M147.139,75.43c0.65,0,1.197,0.545,1.197,1.196s-0.547,1.196-1.197,1.196
		s-1.197-0.545-1.197-1.196S146.488,75.43,147.139,75.43z"/>
</g>
</svg>
